<?xml version="1.0" encoding="UTF-8"?>
<!DOCTYPE svg PUBLIC "-//W3C//DTD SVG 1.1//EN" "http://www.w3.org/Graphics/SVG/1.1/DTD/svg11.dtd">
<svg xmlns="http://www.w3.org/2000/svg" version="1.1" width="1500px" height="1500px" style="shape-rendering:geometricPrecision; text-rendering:geometricPrecision; image-rendering:optimizeQuality; fill-rule:evenodd; clip-rule:evenodd" xmlns:xlink="http://www.w3.org/1999/xlink">
<g><path style="opacity:0.992" fill="#e85325" d="M 1170.5,605.5 C 1156,605.883 1141.33,605.383 1126.5,604C 1116.16,602.276 1106.16,599.442 1096.5,595.5C 1064.44,581.411 1047.78,556.745 1046.5,521.5C 1047.59,491.054 1056.76,463.387 1074,438.5C 1090.24,422.583 1107.91,408.583 1127,396.5C 1127.77,396.645 1128.44,396.978 1129,397.5C 1131.93,413.026 1133.6,428.693 1134,444.5C 1178.71,388.299 1193.21,324.966 1177.5,254.5C 1240.15,270.971 1283.65,309.305 1308,369.5C 1330.93,446.708 1312.76,512.542 1253.5,567C 1229.41,587.376 1201.74,600.21 1170.5,605.5 Z"/></g>
<g><path style="opacity:0.989" fill="#fefefe" d="M 869.5,544.5 C 859.104,544.682 848.771,544.015 838.5,542.5C 801.167,535.265 772,515.932 751,484.5C 732.491,448.858 733.157,413.525 753,378.5C 784.625,326.289 830.125,307.455 889.5,322C 940.109,341.515 965.443,378.515 965.5,433C 966.408,471.17 952.408,502.504 923.5,527C 907.196,537.934 889.196,543.768 869.5,544.5 Z"/></g>
<g><path style="opacity:0.991" fill="#e85325" d="M 395.5,556.5 C 378.405,578.72 355.738,591.054 327.5,593.5C 277.463,596.563 238.297,577.563 210,536.5C 181.068,484.991 181.401,433.657 211,382.5C 227.194,356.971 248.527,336.971 275,322.5C 283.944,354.272 292.277,386.272 300,418.5C 312.533,408.444 320.199,395.444 323,379.5C 350.51,399.007 373.176,423.007 391,451.5C 407.662,481.476 410.995,512.809 401,545.5C 399.153,549.193 397.32,552.86 395.5,556.5 Z"/></g>
<g><path style="opacity:1" fill="#010101" d="M 872.5,346.5 C 905.031,343.337 928.197,356.337 942,385.5C 950.991,415.86 942.825,440.36 917.5,459C 894.13,472.524 871.463,471.524 849.5,456C 821.173,433.7 815.34,406.533 832,374.5C 842.098,360.234 855.598,350.901 872.5,346.5 Z"/></g>
<g><path style="opacity:0.989" fill="#fefefe" d="M 610.5,579.5 C 600.001,581.973 589.334,582.973 578.5,582.5C 537.582,580.382 504.082,563.716 478,532.5C 451.381,493.016 450.714,453.016 476,412.5C 512.969,357.401 562.469,341.901 624.5,366C 656.987,382.43 676.82,408.597 684,444.5C 691.592,484.569 682.925,520.569 658,552.5C 645.211,566.775 629.378,575.775 610.5,579.5 Z"/></g>
<g><path style="opacity:1" fill="#fafafa" d="M 907.5,365.5 C 920.907,364.761 930.407,370.428 936,382.5C 937.441,401.721 928.608,411.221 909.5,411C 895.879,405.942 890.379,396.109 893,381.5C 894.919,373.419 899.753,368.085 907.5,365.5 Z"/></g>
<g><path style="opacity:1" fill="#020202" d="M 593.5,384.5 C 626.207,381.757 649.374,395.09 663,424.5C 672.018,459.621 660.518,485.454 628.5,502C 608.75,509.63 590.083,507.63 572.5,496C 561.875,488.039 553.375,478.205 547,466.5C 537.423,434.81 546.589,409.977 574.5,392C 580.599,388.585 586.932,386.085 593.5,384.5 Z"/></g>
<g><path style="opacity:1" fill="#fcfcfc" d="M 625.5,404.5 C 639.445,402.223 649.612,407.223 656,419.5C 658.596,433.476 653.43,443.309 640.5,449C 628.87,451.101 620.37,446.935 615,436.5C 610.047,422.729 613.547,412.062 625.5,404.5 Z"/></g>
<g><path style="opacity:0.973" fill="#db2427" d="M 838.5,542.5 C 848.771,544.015 859.104,544.682 869.5,544.5C 867.914,565.343 865.247,586.009 861.5,606.5C 850.931,601.098 840.264,596.098 829.5,591.5C 831.101,574.892 834.101,558.559 838.5,542.5 Z"/></g>
<g><path style="opacity:0.984" fill="#db2426" d="M 395.5,556.5 C 417.249,590.103 442.249,621.269 470.5,650C 486.829,665.166 505.163,677.333 525.5,686.5C 510.091,700.406 495.091,714.906 480.5,730C 479.906,730.464 479.239,730.631 478.5,730.5C 411.402,703.406 361.069,657.74 327.5,593.5C 355.738,591.054 378.405,578.72 395.5,556.5 Z"/></g>
<g><path style="opacity:0.966" fill="#db2427" d="M 610.5,579.5 C 618.111,591.111 626.111,602.444 634.5,613.5C 625.002,619.084 615.335,624.417 605.5,629.5C 594.442,615.086 585.442,599.419 578.5,582.5C 589.334,582.973 600.001,581.973 610.5,579.5 Z"/></g>
<g><path style="opacity:0.998" fill="#e85325" d="M 829.5,591.5 C 840.264,596.098 850.931,601.098 861.5,606.5C 870.771,611.137 879.771,616.304 888.5,622C 916.412,642.231 942.245,665.064 966,690.5C 980.787,707.441 994.954,724.775 1008.5,742.5C 1008.35,743.552 1008.52,744.552 1009,745.5C 1016.73,756.228 1024.06,767.228 1031,778.5C 1031.76,780.063 1032.93,781.063 1034.5,781.5C 1043.76,798.349 1052.76,815.349 1061.5,832.5C 1067.99,848.645 1074.65,864.645 1081.5,880.5C 1090.11,902.656 1097.11,925.323 1102.5,948.5C 1106.81,966.009 1110.14,983.675 1112.5,1001.5C 1115.47,1023.81 1115.8,1046.14 1113.5,1068.5C 1110.75,1088.08 1105.75,1107.08 1098.5,1125.5C 1091.48,1139.54 1082.48,1152.2 1071.5,1163.5C 1058.24,1174.42 1043.91,1183.75 1028.5,1191.5C 951.803,1224.17 871.803,1243.67 788.5,1250C 665.468,1264.23 550.135,1241.07 442.5,1180.5C 442.5,1179.83 442.167,1179.5 441.5,1179.5C 426.911,1169.59 412.578,1159.25 398.5,1148.5C 377.425,1131.44 360.425,1111.1 347.5,1087.5C 338.717,1069.68 333.05,1051.01 330.5,1031.5C 329.853,1014.66 331.186,997.994 334.5,981.5C 339.067,963.597 344.733,945.93 351.5,928.5C 360.896,904.376 371.896,881.042 384.5,858.5C 394.895,840.721 406.061,823.388 418,806.5C 418.483,805.552 418.649,804.552 418.5,803.5C 437.295,778.286 457.295,753.953 478.5,730.5C 479.239,730.631 479.906,730.464 480.5,730C 495.091,714.906 510.091,700.406 525.5,686.5C 550.37,665.057 577.036,646.057 605.5,629.5C 615.335,624.417 625.002,619.084 634.5,613.5C 676.812,593.089 721.478,582.089 768.5,580.5C 789.458,580.826 809.791,584.493 829.5,591.5 Z"/></g>
<g><path style="opacity:0.983" fill="#db2426" d="M 1096.5,595.5 C 1106.16,599.442 1116.16,602.276 1126.5,604C 1141.33,605.383 1156,605.883 1170.5,605.5C 1163.81,637.538 1150.64,666.538 1131,692.5C 1120.91,705.262 1110.08,717.428 1098.5,729C 1084.27,740.631 1070.6,752.965 1057.5,766C 1050.11,771.685 1042.45,776.852 1034.5,781.5C 1032.93,781.063 1031.76,780.063 1031,778.5C 1024.06,767.228 1016.73,756.228 1009,745.5C 1008.52,744.552 1008.35,743.552 1008.5,742.5C 1017.1,735.405 1025.27,727.738 1033,719.5C 1059.15,680.861 1080.32,639.528 1096.5,595.5 Z"/></g>
<g><path style="opacity:1" fill="#db2526" d="M 849.5,775.5 C 852.652,774.959 855.152,775.959 857,778.5C 858.492,796.532 853.492,812.532 842,826.5C 811.871,860.173 774.038,877.173 728.5,877.5C 679.723,874.854 635.89,858.854 597,829.5C 595.5,824.333 597.333,822.5 602.5,824C 633.665,837.833 665.998,847.833 699.5,854C 739.569,860.193 775.902,851.526 808.5,828C 814.699,822.136 820.532,815.969 826,809.5C 833.274,797.736 841.107,786.402 849.5,775.5 Z"/></g>
<g><path style="opacity:0.988" fill="#db2426" d="M 418.5,803.5 C 418.649,804.552 418.483,805.552 418,806.5C 406.061,823.388 394.895,840.721 384.5,858.5C 344.228,852.854 306.561,860.354 271.5,881C 266.666,884.252 261.666,887.252 256.5,890C 234.5,905.333 212.5,920.667 190.5,936C 174.568,944.955 158.902,944.622 143.5,935C 136.621,927.364 130.121,919.531 124,911.5C 121.538,901.517 122.538,891.85 127,882.5C 134.766,866.057 145.6,851.89 159.5,840C 201.858,808.653 249.525,791.32 302.5,788C 342.223,785.465 380.889,790.632 418.5,803.5 Z"/></g>
<g><path style="opacity:0.987" fill="#db2426" d="M 1081.5,880.5 C 1074.65,864.645 1067.99,848.645 1061.5,832.5C 1098.86,813.202 1138.7,803.869 1181,804.5C 1224.13,804.991 1265.29,814.158 1304.5,832C 1317.33,837.498 1328.49,845.332 1338,855.5C 1349.8,871.849 1351.46,889.182 1343,907.5C 1330.34,924.444 1313.84,929.611 1293.5,923C 1255.53,906.567 1216.2,894.567 1175.5,887C 1144.38,881.803 1113.05,879.636 1081.5,880.5 Z"/></g>
<g><path style="opacity:0.986" fill="#db2426" d="M 351.5,928.5 C 344.733,945.93 339.067,963.597 334.5,981.5C 275.382,1011.56 222.048,1049.73 174.5,1096C 167.928,1101.56 160.595,1105.89 152.5,1109C 127.82,1114.3 112.32,1104.8 106,1080.5C 103.832,1063.67 107.166,1048.01 116,1033.5C 132.028,1008.14 153.195,988.304 179.5,974C 228.822,946.56 281.655,931.06 338,927.5C 342.47,928.264 346.97,928.597 351.5,928.5 Z"/></g>
<g><path style="opacity:0.984" fill="#db2426" d="M 1102.5,948.5 C 1167.87,948.094 1229.54,962.927 1287.5,993C 1303.13,1001.56 1316.97,1012.4 1329,1025.5C 1339.95,1041.92 1340.28,1058.59 1330,1075.5C 1316.22,1089.52 1300.72,1091.68 1283.5,1082C 1231.99,1043.92 1174.99,1017.08 1112.5,1001.5C 1110.14,983.675 1106.81,966.009 1102.5,948.5 Z"/></g>
<g><path style="opacity:0.987" fill="#db2426" d="M 330.5,1031.5 C 333.05,1051.01 338.717,1069.68 347.5,1087.5C 329.538,1132.2 312.038,1177.2 295,1222.5C 289.81,1236.55 282.81,1249.55 274,1261.5C 255.04,1281.68 234.207,1283.84 211.5,1268C 202.707,1258.58 197.54,1247.41 196,1234.5C 192.764,1195.45 201.764,1159.45 223,1126.5C 250.576,1085.42 286.41,1053.75 330.5,1031.5 Z"/></g>
<g><path style="opacity:0.985" fill="#db2426" d="M 1113.5,1068.5 C 1151.31,1074.27 1187.31,1085.77 1221.5,1103C 1244.05,1114.55 1262.55,1130.72 1277,1151.5C 1289.57,1171.35 1293.24,1192.68 1288,1215.5C 1279.5,1241 1262,1251.5 1235.5,1247C 1225.4,1243.23 1218.23,1236.4 1214,1226.5C 1201.72,1185.08 1176.55,1154.25 1138.5,1134C 1125.36,1130.21 1112.03,1127.37 1098.5,1125.5C 1105.75,1107.08 1110.75,1088.08 1113.5,1068.5 Z"/></g>
<g><path style="opacity:0.984" fill="#db2426" d="M 398.5,1148.5 C 412.578,1159.25 426.911,1169.59 441.5,1179.5C 442.167,1179.5 442.5,1179.83 442.5,1180.5C 447.441,1191.71 452.941,1202.71 459,1213.5C 467.31,1231.33 468.644,1249.66 463,1268.5C 450.698,1295.04 430.532,1304.21 402.5,1296C 386.907,1285 378.407,1269.83 377,1250.5C 376.456,1221.43 380.789,1193.1 390,1165.5C 393.389,1160.05 396.223,1154.39 398.5,1148.5 Z"/></g>
<g><path style="opacity:0.983" fill="#db2426" d="M 1071.5,1163.5 C 1102.22,1183.47 1112.05,1211.14 1101,1246.5C 1087.6,1275.95 1065.77,1285.12 1035.5,1274C 1026.05,1267.1 1021.72,1257.77 1022.5,1246C 1023.94,1233.72 1026.11,1221.56 1029,1209.5C 1029.75,1203.45 1029.58,1197.45 1028.5,1191.5C 1043.91,1183.75 1058.24,1174.42 1071.5,1163.5 Z"/></g>
</svg>
