<?xml version="1.0" encoding="UTF-8"?>
<!DOCTYPE svg PUBLIC "-//W3C//DTD SVG 1.1//EN" "http://www.w3.org/Graphics/SVG/1.1/DTD/svg11.dtd">
<svg xmlns="http://www.w3.org/2000/svg" version="1.1" width="1570px" height="1320px" style="shape-rendering:geometricPrecision; text-rendering:geometricPrecision; image-rendering:optimizeQuality; fill-rule:evenodd; clip-rule:evenodd" xmlns:xlink="http://www.w3.org/1999/xlink">
<g><path style="opacity:1" fill="#fefefe" d="M -0.5,-0.5 C 522.833,-0.5 1046.17,-0.5 1569.5,-0.5C 1569.5,439.5 1569.5,879.5 1569.5,1319.5C 1046.17,1319.5 522.833,1319.5 -0.5,1319.5C -0.5,879.5 -0.5,439.5 -0.5,-0.5 Z"/></g>
<g><path style="opacity:1" fill="#dc5328" d="M 1247.5,379.5 C 1248.19,387.816 1248.52,396.149 1248.5,404.5C 1244,452.693 1221.33,489.527 1180.5,515C 1167.09,522.525 1152.76,527.359 1137.5,529.5C 1118.65,531.851 1100.31,529.851 1082.5,523.5C 1052.23,507.943 1040.4,483.277 1047,449.5C 1050.49,428.306 1059.99,410.472 1075.5,396C 1085.08,387.923 1095.08,380.423 1105.5,373.5C 1105.83,374 1106.17,374.5 1106.5,375C 1108.75,386.698 1110.09,398.531 1110.5,410.5C 1144.16,368.551 1155.16,321.218 1143.5,268.5C 1144,268.167 1144.5,267.833 1145,267.5C 1197.33,282.501 1231,316.167 1246,368.5C 1246.94,372.114 1247.44,375.78 1247.5,379.5 Z"/></g>
<g><path style="opacity:1" fill="#dc5328" d="M 555.5,492.5 C 543.399,509.889 526.732,519.555 505.5,521.5C 451.375,522.189 417.208,496.522 403,444.5C 395.404,388.693 415.904,346.693 464.5,318.5C 465.624,320.369 466.457,322.369 467,324.5C 472.188,345.95 477.688,367.283 483.5,388.5C 484.002,389.521 484.668,389.688 485.5,389C 494.047,381.743 499.381,372.576 501.5,361.5C 523.696,377.197 541.529,396.863 555,420.5C 563.039,438.438 565.372,457.105 562,476.5C 560.51,482.143 558.343,487.476 555.5,492.5 Z"/></g>
<g><path style="opacity:1" fill="#0b0706" d="M 913.5,335.5 C 938.776,333.377 956.609,343.71 967,366.5C 973.281,395.777 962.447,415.611 934.5,426C 920.467,429.657 907.8,426.991 896.5,418C 875.953,401.321 871.453,381.154 883,357.5C 890.853,346.792 901.02,339.459 913.5,335.5 Z"/></g>
<g><path style="opacity:1" fill="#f9f9f9" d="M 938.5,350.5 C 948.194,349.113 955.694,352.446 961,360.5C 963.069,366.433 962.403,372.099 959,377.5C 952.745,384.913 945.245,386.413 936.5,382C 929.366,375.199 927.533,367.032 931,357.5C 932.742,354.254 935.242,351.921 938.5,350.5 Z"/></g>
<g><path style="opacity:1" fill="#0b0707" d="M 725.5,454.5 C 719.536,455.307 713.536,455.64 707.5,455.5C 689.518,451.696 676.685,441.363 669,424.5C 662.726,396.881 672.559,377.381 698.5,366C 724.486,360.639 743.653,369.472 756,392.5C 764.036,422.266 753.869,442.933 725.5,454.5 Z"/></g>
<g><path style="opacity:1" fill="#fafafa" d="M 727.5,379.5 C 748.726,378.846 755.559,388.179 748,407.5C 742.344,412.193 735.844,413.693 728.5,412C 719.913,406.412 717.079,398.579 720,388.5C 721.642,384.7 724.142,381.7 727.5,379.5 Z"/></g>
<g><path style="opacity:1" fill="#eb9a80" d="M 1247.5,379.5 C 1248.95,384.423 1249.62,389.589 1249.5,395C 1249.5,398.352 1249.16,401.518 1248.5,404.5C 1248.52,396.149 1248.19,387.816 1247.5,379.5 Z"/></g>
<g><path style="opacity:1" fill="#918e8c" d="M 725.5,454.5 C 722.305,456.03 718.805,456.696 715,456.5C 712.31,456.497 709.81,456.164 707.5,455.5C 713.536,455.64 719.536,455.307 725.5,454.5 Z"/></g>
<g><path style="opacity:1" fill="#ce2629" d="M 895.5,483.5 C 900.305,484.487 905.305,484.821 910.5,484.5C 910.5,488.5 910.5,492.5 910.5,496.5C 908.949,506.472 907.616,516.472 906.5,526.5C 905.839,527.718 905.172,529.051 904.5,530.5C 896.959,526.897 889.292,523.563 881.5,520.5C 883.079,508.027 885.412,495.694 888.5,483.5C 890.833,483.5 893.167,483.5 895.5,483.5 Z"/></g>
<g><path style="opacity:1" fill="#eca6a3" d="M 895.5,483.5 C 900.833,483.5 906.167,483.5 911.5,483.5C 911.818,488.032 911.485,492.366 910.5,496.5C 910.5,492.5 910.5,488.5 910.5,484.5C 905.305,484.821 900.305,484.487 895.5,483.5 Z"/></g>
<g><path style="opacity:1" fill="#ce2529" d="M 555.5,492.5 C 573.208,522.061 594.875,548.561 620.5,572C 630.389,579.778 641.056,586.278 652.5,591.5C 641.728,601.771 631.062,612.271 620.5,623C 619.207,623.49 617.873,623.657 616.5,623.5C 566.765,603.435 529.765,569.435 505.5,521.5C 526.732,519.555 543.399,509.889 555.5,492.5 Z"/></g>
<g><path style="opacity:1" fill="#ce282b" d="M 734.5,536.5 C 727.671,540.749 720.671,544.749 713.5,548.5C 705.579,537.67 698.912,526.004 693.5,513.5C 701.493,512.445 709.493,511.945 717.5,512C 722.997,520.323 728.664,528.489 734.5,536.5 Z"/></g>
<g><path style="opacity:1" fill="#dc5328" d="M 881.5,520.5 C 889.292,523.563 896.959,526.897 904.5,530.5C 905.172,529.051 905.839,527.718 906.5,526.5C 906.104,529.044 906.771,531.211 908.5,533C 937.589,549.992 963.423,571.159 986,596.5C 996.334,608.538 1006.17,620.872 1015.5,633.5C 1022.2,643.19 1028.87,652.856 1035.5,662.5C 1042.45,675.406 1049.12,688.406 1055.5,701.5C 1061.1,712.966 1066.1,724.633 1070.5,736.5C 1077.38,753.34 1082.71,770.673 1086.5,788.5C 1090.15,801.396 1092.81,814.396 1094.5,827.5C 1095.82,844.836 1095.82,862.169 1094.5,879.5C 1093.17,893.656 1089.5,907.156 1083.5,920C 1085.06,920.21 1086.39,920.71 1087.5,921.5C 1085.71,921.215 1084.05,921.548 1082.5,922.5C 1077.3,932.919 1070.63,942.253 1062.5,950.5C 1057.66,954.501 1052.66,958.334 1047.5,962C 1042.08,964.368 1037.08,967.202 1032.5,970.5C 968.219,997.092 901.219,1012.09 831.5,1015.5C 809.845,1016.35 788.178,1016.68 766.5,1016.5C 703.358,1010.97 644.358,992.64 589.5,961.5C 578.857,953.865 568.19,946.199 557.5,938.5C 542.277,924.953 529.277,909.619 518.5,892.5C 516.044,885.567 513.544,878.567 511,871.5C 509.541,864.688 508.041,858.021 506.5,851.5C 507.028,839.674 508.028,827.84 509.5,816C 509.472,814.93 509.139,814.097 508.5,813.5C 513.104,800.261 517.77,786.928 522.5,773.5C 530.049,755.405 538.382,737.738 547.5,720.5C 554.908,707.352 563.075,694.685 572,682.5C 572.483,681.552 572.649,680.552 572.5,679.5C 581.202,669.155 589.702,658.488 598,647.5C 604.833,640 611.667,632.5 618.5,625C 617.584,624.722 616.918,624.222 616.5,623.5C 617.873,623.657 619.207,623.49 620.5,623C 631.062,612.271 641.728,601.771 652.5,591.5C 671.965,575.934 692.299,561.601 713.5,548.5C 720.671,544.749 727.671,540.749 734.5,536.5C 748.369,531.069 762.369,525.902 776.5,521C 801.084,514.245 826.084,511.578 851.5,513C 861.828,514.33 871.828,516.83 881.5,520.5 Z"/></g>
<g><path style="opacity:1" fill="#ce2529" d="M 1082.5,523.5 C 1100.31,529.851 1118.65,531.851 1137.5,529.5C 1132.31,555.551 1121.47,578.884 1105,599.5C 1088.44,618.216 1070.61,635.716 1051.5,652C 1045.99,655.363 1040.66,658.863 1035.5,662.5C 1028.87,652.856 1022.2,643.19 1015.5,633.5C 1028.24,624.925 1038.41,613.925 1046,600.5C 1060.33,575.842 1072.5,550.175 1082.5,523.5 Z"/></g>
<g><path style="opacity:1" fill="#f6d5d6" d="M 547.5,530.5 C 545.272,529.678 544.605,528.345 545.5,526.5C 546.705,527.577 547.372,528.91 547.5,530.5 Z"/></g>
<g><path style="opacity:1" fill="#edacac" d="M 547.5,530.5 C 549.982,531.804 551.149,533.804 551,536.5C 549.558,534.609 548.391,532.609 547.5,530.5 Z"/></g>
<g><path style="opacity:1" fill="#ce2528" d="M 896.5,658.5 C 901.398,658.363 903.398,660.863 902.5,666C 901.832,679.833 896.665,691.666 887,701.5C 860.68,726.641 829.18,737.475 792.5,734C 762.781,729.475 735.448,718.808 710.5,702C 708.878,700.705 707.545,699.205 706.5,697.5C 706.608,696.558 706.941,695.725 707.5,695C 709.167,694.333 710.833,694.333 712.5,695C 736.497,705.916 761.497,713.583 787.5,718C 816.123,721.118 842.123,714.451 865.5,698C 869.333,694.167 873.167,690.333 877,686.5C 883.263,676.963 889.763,667.63 896.5,658.5 Z"/></g>
<g><path style="opacity:1" fill="#ce2528" d="M 486.5,667.5 C 515.95,666.179 544.617,670.179 572.5,679.5C 572.649,680.552 572.483,681.552 572,682.5C 563.075,694.685 554.908,707.352 547.5,720.5C 526.357,717.697 505.691,719.53 485.5,726C 474.586,730.791 463.919,736.124 453.5,742C 438.222,752.278 423.222,762.945 408.5,774C 402.648,777.926 396.315,780.759 389.5,782.5C 384.463,782.587 379.463,782.254 374.5,781.5C 370.043,780.213 366.21,777.88 363,774.5C 359.725,768.269 355.725,762.603 351,757.5C 350.504,752.792 350.838,748.125 352,743.5C 359.357,725.464 371.19,710.964 387.5,700C 413.368,683.071 441.701,672.904 472.5,669.5C 477.414,669.638 482.081,668.972 486.5,667.5 Z"/></g>
<g><path style="opacity:1" fill="#e17272" d="M 486.5,667.5 C 482.081,668.972 477.414,669.638 472.5,669.5C 476.919,668.028 481.586,667.362 486.5,667.5 Z"/></g>
<g><path style="opacity:1" fill="#ce2529" d="M 1070.5,736.5 C 1066.1,724.633 1061.1,712.966 1055.5,701.5C 1082.83,687.198 1111.99,680.198 1143,680.5C 1176.3,680.715 1208.13,687.549 1238.5,701C 1251.07,706.012 1260.9,714.178 1268,725.5C 1275.09,741.529 1271.93,755.029 1258.5,766C 1249.59,770.632 1240.26,771.632 1230.5,769C 1179.62,746.241 1126.29,735.408 1070.5,736.5 Z"/></g>
<g><path style="opacity:1" fill="#ce2529" d="M 522.5,773.5 C 517.77,786.928 513.104,800.261 508.5,813.5C 463.998,836.425 423.665,865.259 387.5,900C 378.606,907.808 368.272,910.808 356.5,909C 340.93,901.359 334.763,888.859 338,871.5C 344.01,853.323 354.177,837.823 368.5,825C 413.996,790.779 465.33,773.612 522.5,773.5 Z"/></g>
<g><path style="opacity:1" fill="#e48687" d="M 374.5,781.5 C 379.463,782.254 384.463,782.587 389.5,782.5C 387.696,783.162 385.696,783.495 383.5,783.5C 380.186,783.657 377.186,782.991 374.5,781.5 Z"/></g>
<g><path style="opacity:1" fill="#ce2529" d="M 1086.5,788.5 C 1138.58,788.275 1187.24,800.775 1232.5,826C 1242.92,832.091 1251.76,839.925 1259,849.5C 1265.26,860.739 1264.92,871.739 1258,882.5C 1246.31,894.545 1233.47,895.712 1219.5,886C 1181.71,858.441 1140.04,838.941 1094.5,827.5C 1092.81,814.396 1090.15,801.396 1086.5,788.5 Z"/></g>
<g><path style="opacity:1" fill="#ce2528" d="M 506.5,851.5 C 508.041,858.021 509.541,864.688 511,871.5C 513.544,878.567 516.044,885.567 518.5,892.5C 503.549,933.62 487.383,974.287 470,1014.5C 460.894,1031.97 446.728,1038.47 427.5,1034C 416.682,1028.83 409.848,1020.33 407,1008.5C 402.821,976.213 409.821,946.547 428,919.5C 448.465,890.199 474.631,867.532 506.5,851.5 Z"/></g>
<g><path style="opacity:1" fill="#ce2529" d="M 1094.5,879.5 C 1131.78,883.977 1165.78,896.81 1196.5,918C 1211.41,929.576 1221.57,944.409 1227,962.5C 1229.13,975.549 1227.13,987.882 1221,999.5C 1210.07,1013.61 1196.57,1016.77 1180.5,1009C 1178.67,1007.17 1176.83,1005.33 1175,1003.5C 1170.62,994.365 1166.62,985.032 1163,975.5C 1151.45,954.281 1134.95,938.114 1113.5,927C 1104.99,924.415 1096.32,922.582 1087.5,921.5C 1086.39,920.71 1085.06,920.21 1083.5,920C 1089.5,907.156 1093.17,893.656 1094.5,879.5 Z"/></g>
<g><path style="opacity:1" fill="#ce2629" d="M 557.5,938.5 C 568.19,946.199 578.857,953.865 589.5,961.5C 597.27,974.378 603.436,988.044 608,1002.5C 611.156,1021.06 605.323,1035.89 590.5,1047C 570.433,1056.53 555.599,1051.37 546,1031.5C 541.399,1017.09 540.399,1002.42 543,987.5C 544.667,979.167 546.333,970.833 548,962.5C 550.921,954.337 554.088,946.337 557.5,938.5 Z"/></g>
<g><path style="opacity:1" fill="#ce2529" d="M 1062.5,950.5 C 1082.35,961.191 1090.85,977.857 1088,1000.5C 1084.39,1025.11 1070.23,1036.95 1045.5,1036C 1033.16,1032.49 1027.16,1024.33 1027.5,1011.5C 1027.78,1003.27 1029.28,995.272 1032,987.5C 1032.5,981.843 1032.67,976.176 1032.5,970.5C 1037.08,967.202 1042.08,964.368 1047.5,962C 1052.66,958.334 1057.66,954.501 1062.5,950.5 Z"/></g>
<g><path style="opacity:1" fill="#f4c5b6" d="M 831.5,1015.5 C 829.708,1016.31 827.708,1016.81 825.5,1017C 805.662,1017.83 785.996,1017.66 766.5,1016.5C 788.178,1016.68 809.845,1016.35 831.5,1015.5 Z"/></g>
</svg>
